<svg width="30" height="30" viewBox="0 0 30 30" fill="none" xmlns="http://www.w3.org/2000/svg">
<path d="M25 12.5C25 20 15 27.5 15 27.5C15 27.5 5 20 5 12.5C5 9.84783 6.05357 7.3043 7.92893 5.42893C9.80429 3.55357 12.3478 2.5 15 2.5C17.6522 2.5 20.1957 3.55357 22.0711 5.42893C23.9464 7.3043 25 9.84783 25 12.5Z" stroke="white" stroke-width="2" stroke-linecap="round" stroke-linejoin="round"/>
<path d="M15 16.25C17.0711 16.25 18.75 14.5711 18.75 12.5C18.75 10.4289 17.0711 8.75 15 8.75C12.9289 8.75 11.25 10.4289 11.25 12.5C11.25 14.5711 12.9289 16.25 15 16.25Z" stroke="white" stroke-width="2" stroke-linecap="round" stroke-linejoin="round"/>
</svg>
