<svg width="30" height="30" viewBox="0 0 30 30" fill="none" xmlns="http://www.w3.org/2000/svg">
<path d="M8.75 20.375C11.5 20.375 13.75 18.0875 13.75 15.3125C13.75 13.8625 13.0375 12.4875 11.6125 11.325C10.1875 10.1625 9.1125 8.4375 8.75 6.625C8.3875 8.4375 7.325 10.175 5.8875 11.325C4.45 12.475 3.75 13.875 3.75 15.3125C3.75 18.0875 6 20.375 8.75 20.375Z" stroke="white" stroke-width="2" stroke-linecap="round" stroke-linejoin="round"/>
<path d="M15.7 8.25002C16.5597 6.87643 17.1691 5.36133 17.5 3.77502C18.125 6.90002 20 9.90002 22.5 11.9C25 13.9 26.25 16.275 26.25 18.775C26.2571 20.5029 25.7511 22.194 24.796 23.6339C23.8409 25.0738 22.4798 26.1977 20.8852 26.8631C19.2905 27.5286 17.5343 27.7055 15.839 27.3716C14.1436 27.0377 12.5857 26.2079 11.3625 24.9875" stroke="white" stroke-width="2" stroke-linecap="round" stroke-linejoin="round"/>
</svg>
