<svg width="30" height="30" viewBox="0 0 30 30" fill="none" xmlns="http://www.w3.org/2000/svg">
<path d="M22.125 9.62501C22.4909 9.27271 22.9371 9.0149 23.4251 8.87391C23.913 8.73292 24.428 8.71299 24.9254 8.81586C25.4228 8.91872 25.8876 9.14128 26.2797 9.46425C26.6717 9.78723 26.979 10.2009 27.1752 10.6694C27.3713 11.1379 27.4503 11.6472 27.4052 12.1531C27.3602 12.6591 27.1925 13.1464 26.9167 13.5729C26.641 13.9994 26.2653 14.3523 25.8225 14.601C25.3796 14.8496 24.8827 14.9866 24.375 15H2.5" stroke="white" stroke-width="2" stroke-linecap="round" stroke-linejoin="round"/>
<path d="M12 5.75C12.2896 5.45463 12.648 5.23573 13.043 5.11294C13.438 4.99014 13.8573 4.96728 14.2633 5.0464C14.6693 5.12553 15.0494 5.30416 15.3694 5.5663C15.6894 5.82843 15.9393 6.16587 16.0968 6.54837C16.2543 6.93087 16.3144 7.34647 16.2718 7.75792C16.2292 8.16938 16.0851 8.56382 15.8525 8.9059C15.6199 9.24798 15.3061 9.52699 14.9392 9.71794C14.5722 9.9089 14.1636 10.0058 13.75 10H2.5" stroke="white" stroke-width="2" stroke-linecap="round" stroke-linejoin="round"/>
<path d="M15.75 24.25C16.0396 24.5454 16.398 24.7643 16.793 24.8871C17.188 25.0099 17.6073 25.0327 18.0133 24.9536C18.4193 24.8745 18.7994 24.6958 19.1194 24.4337C19.4394 24.1716 19.6893 23.8341 19.8468 23.4516C20.0043 23.0691 20.0644 22.6535 20.0218 22.2421C19.9792 21.8306 19.8351 21.4362 19.6025 21.0941C19.3699 20.752 19.0561 20.473 18.6892 20.2821C18.3222 20.0911 17.9136 19.9942 17.5 20H2.5" stroke="white" stroke-width="2" stroke-linecap="round" stroke-linejoin="round"/>
</svg>
